<svg xmlns="http://www.w3.org/2000/svg" viewBox="0 0 410 404" fill="none">
  <path
    d="M399.641 59.5242L215.643 388.545C211.852 395.317 202.148 395.317 198.357 388.545L10.3594 59.5242C6.17493 52.1964 12.4393 43.2567 20.7427 44.1875L205 62.1534C205.648 62.2259 206.302 62.2259 206.95 62.1534L389.257 44.2057C397.56 43.2749 403.825 52.2147 399.641 59.5242Z"
    fill="url(#paint0_linear)"
  />
  <path
    d="M292.965 1.57465L156.062 28.5337C153.814 28.9757 152.153 30.9064 151.997 33.1922L143.575 150.479C143.377 153.234 145.905 155.348 148.625 154.741L186.725 146.246C190.289 145.451 193.506 148.587 192.759 152.159L181.439 206.234C180.677 209.875 184.091 213.015 187.66 212.054L211.195 205.714C214.77 204.751 218.188 207.901 217.414 211.545L199.422 296.315C198.297 301.611 205.343 304.498 208.246 299.914L210.185 296.851L321.697 74.43C323.565 70.7042 320.345 66.4121 316.247 67.1983L277.022 74.725C273.334 75.4331 270.063 71.9972 271.138 68.3958L296.746 8.56884C297.823 4.96561 294.843 1.20445 292.965 1.57465Z"
    fill="url(#paint1_linear)"
  />
  <defs>
    <linearGradient id="paint0_linear" x1="6.00017" y1="32.9999" x2="235" y2="344" gradientUnits="userSpaceOnUse">
      <stop stop-color="#41D1FF" />
      <stop offset="1" stop-color="#BD34FE" />
    </linearGradient>
    <linearGradient id="paint1_linear" x1="194.651" y1="8.81818" x2="236.076" y2="292.989" gradientUnits="userSpaceOnUse">
      <stop stop-color="#FFEA83" />
      <stop offset="0.0833333" stop-color="#FFDD35" />
      <stop offset="1" stop-color="#FFA800" />
    </linearGradient>
  </defs>
</svg>
